<?xml version="1.0" encoding="utf-8"?>
<!-- Generator: Adobe Illustrator 27.2.0, SVG Export Plug-In . SVG Version: 6.00 Build 0)  -->
<svg version="1.1" id="Layer_1" xmlns="http://www.w3.org/2000/svg" xmlns:xlink="http://www.w3.org/1999/xlink" x="0px" y="0px"
	 viewBox="0 0 115 116.3" style="enable-background:new 0 0 115 116.3;" xml:space="preserve">
<style type="text/css">
	.st0{fill:#0C3B5D;}
	.st1{fill:#FFFFFF;}
</style>
<g>
	<circle class="st0" cx="62.8" cy="74.3" r="42.9"/>
	<g>
		<path class="st1" d="M18.8,100.9c0.3,0,0.6,0.2,0.6,0.2c0.1,0.1,0.1,0.1,0.2,0.2c0.3,0.4,0.3,0.9,0,1.3c-0.6,0.8-1.1,0.9-1.3,2.7
			c-0.1,0.5-0.1,1.1,0,1.6c0.8-0.7,1.5-1.4,2.2-2.1c1-1,1.5-1,2.3-2.2c0.2-0.3,0.6-0.4,0.9-0.4c0.4,0,0.7,0.2,0.8,0.6
			c0.3,0.7,0.6,1.4,1,2.2c0.3,0.6,0.7,1.2,1,1.7c0.8-1.4,1.6-2.9,2.4-4.3c0,0,0.3-0.3,0.7-0.3c0.4,0,0.7,0.3,0.7,0.3
			c0.4,0.4,0.9,0.9,1.5,1.4c0.5,0.4,1,0.8,1.4,1.1c0.4-0.9,0.8-1.8,1.1-2.7c0.1-0.2,0.3-0.4,0.6-0.5c0.3-0.1,0.5-0.1,0.8,0.1
			c0.4,0.3,0.8,0.5,1.4,0.8c0.6,0.3,1.1,0.5,1.6,0.6c0.5-1.1,0.9-2.2,1.4-3.3c0.2-0.5,0.8-0.8,1.3-0.6c0.4,0.2,0.9,0.5,1.5,0.7
			c0.7,0.3,1.3,0.4,1.8,0.6c0.3-0.9,0.5-1.8,0.8-2.6c0.1-0.4,0.5-0.7,0.9-0.7c2.9-0.2,5.6-1.2,8.3-2.1c7.1-2.3,11.9-6.4,16.5-10.4
			c2.8-2.4,5.4-5,7.9-7.7c0.3-0.4,0.9-0.4,1.3-0.2c3.6,2.4,7.2,4.8,10.8,7.2c1.2,0.8,4.2,2.4,4.2,2.4c0.3,0.2,1.5,0.8,2.4,1
			c1.4,0.3,2.6,0,3.3-0.2c0.6-0.2,1.3-0.5,1.9-1.2c0.1-0.1,0.1-0.2,0.2-0.4L97.1,82c-0.5-0.3-0.7-0.8-0.4-1.3
			c0.2-0.5,0.7-0.5,1.2-0.3l0.2,0.1c0.1,0,0.1,0.1,0.2,0.1l5.9,2.9c0.8,0.1,2.8,0.3,4.3-0.5c0.7-0.3,1.2-0.8,1.7-1.2
			c-2.5-1.1-5.3-2.2-6.7-2.9c-1-0.5-1.7-0.8-2.2-1c0,0-0.6-0.2-0.8-0.8c0-0.1-0.1-0.4,0-0.7c0.1-0.3,0.4-0.3,0.5-0.4
			c0.5-0.2,1.2,0.2,1.5,0.4c1,0.4,3.1,1.3,5.7,2.4c0.8-0.2,1.9-0.8,2.9-1.8c0.4-0.4,1.2-1.1,1.5-1.6c-0.3-0.1-7.9-2.3-8.3-2.8
			c-0.1-0.2-0.2-0.8-0.1-1c0.2-0.3,0.7-0.2,0.8-0.2c0.3,0.1,0.7,0.2,1,0.3c1,0.2,2.5,0.5,3.4,0.7c0.6-0.2,2.2-1,3.3-1.9
			c0.3-0.3,0.6-0.6,0.9-1l-25.7-3.9c-0.4-0.1-0.7-0.3-0.8-0.7s0-0.8,0.2-1c2.4-2.6,4.3-5.5,5.8-8.7c1.6-3.5,2.6-7.2,2.9-11
			c0-0.3,0.2-0.6,0.4-0.8c1.6-1.1,4.4-3.4,5.6-4.9c1.1-1.4,2.4-4.1,3.1-5.7l-4.1,2.8c-0.4,0.2-0.9,0.2-1.3-0.2
			c-0.3-0.3-0.4-0.9-0.1-1.3c2-3.1,3.6-8,4.4-11.6c0.2-0.9,0.3-1.8,0.4-2.7l-6,9.5c-0.3,0.4-0.9,0.5-1.4,0.3s-0.6-0.9-0.4-1.4
			c2.4-4.5,4.5-11.7,4.6-16.5c0-0.6,0-1.2,0-1.8l-6.1,12.2c-0.2,0.5-0.8,0.7-1.3,0.5c-0.5-0.2-0.7-0.8-0.6-1.3
			c0.9-3,1.3-6.2,1.5-9.3C95,9.6,95.3,8.2,94,3.6c-0.1-0.3-0.2-0.7-0.3-1C92,8,90.2,11.1,88,16.2C82,29.4,75.4,38.7,70.5,45.5
			c-4.5,6.3-11.6,14.7-11.6,14.8c-0.2,0.2-0.4,0.3-0.7,0.4c-13.4,0.9-16,1.7-16.5,2c-0.4,0.7-0.9,1.1-1.2,1.3
			c-0.5,0.3-0.9,0.4-1.2,0.6l-0.2,0.1c-0.8,0.3-1.5,0.7-1.8,1c-0.3,0.2-0.8,0.9-0.8,2.2l0,0.3c0.5-0.3,1-0.6,1.6-0.8
			c1-0.3,2-0.3,2.4-0.3c0,0,0.5,0,0.9,0.1c1.8,0.4,3.6,2.1,4.7,3.1l0.1,0.1c1,0.9,2,1.8,3,2.7c0.2,0.2,0.4,0.5,0.4,0.8
			c0,0.3-0.1,0.6-0.4,0.8c-3.5,2.9-7.2,5.7-11,8.3c-7.6,5.4-11.4,8.1-15.6,9.8c-6.9,2.8-13.7,3-18.5,3.6C4.4,96.4,5,97,5.5,97.1
			c2.4,0.5,5.9,0.8,8.3,0.5c0.5-0.1,0.9,0.2,1.1,0.6c0.2,0.4,0.1,0.9-0.3,1.2c-0.6,0.5-1.4,1.3-2,2.6c-0.2,0.4-0.3,0.8-0.4,1.3
			c1.2-0.2,2.3-0.6,3.4-0.9c1.7-0.5,1.1-0.6,2.7-1.4C18.4,101,18.6,100.9,18.8,100.9z"/>
		<g>
			<g>
				<path class="st0" d="M56.2,76.6L55,75.5l0,0c0.1-0.3-0.6-1.3-1.6-2.2l-1.8-1.6l8.2,0.6c-0.8-1.4-2.9-2-2.9-2l-3.6-1.1l9-1.1
					c-0.8-1.2-3.2-2-4.2-2.2L54.5,65l8.5-1.8c-0.3-0.4-0.8-0.9-1.6-1.5l0.9-1.3c2.3,1.6,2.7,3,2.8,3.2l0.2,0.8l-4.2,0.9
					c1.4,0.7,2.8,1.8,3,3.4l0.1,0.8L59.8,70c0.9,0.7,1.8,1.7,1.9,3.1l0.1,1l-5.9-0.5c0.4,0.5,0.7,1.1,0.7,1.7
					C56.6,75.8,56.5,76.3,56.2,76.6z"/>
				<path class="st0" d="M92.6,80.5c-0.2,0-0.4-0.1-0.5-0.2c-0.2-0.3-0.2-0.7,0.1-0.9c1.7-1.4,2.9-2.9,3.7-4.5
					c0.3-0.6,0.5-1.2,0.7-1.8c0.3-1.2,0.3-2.1,0.3-2.1c0-0.4,0.2-0.7,0.6-0.7c0.4,0,0.7,0.2,0.7,0.6c0,0,0.1,1-0.3,2.5
					c-0.2,0.7-0.4,1.4-0.8,2c-0.9,1.8-2.3,3.5-4.1,5C92.9,80.4,92.8,80.5,92.6,80.5z"/>
				<path class="st0" d="M29.2,94c-0.2,0-0.5-0.1-0.6-0.4c-0.1-0.3,0-0.7,0.3-0.9c0.7-0.3,1.7-0.9,2.8-1.6c0.3-0.2,0.7-0.1,0.9,0.2
					c0.2,0.3,0.1,0.7-0.2,0.9c-1.2,0.8-2.2,1.3-2.9,1.7C29.4,94,29.3,94,29.2,94z"/>
				<path class="st0" d="M34.6,90.6c-0.2,0-0.4-0.1-0.5-0.3c-0.2-0.3-0.1-0.7,0.2-0.9c6-4.2,13.7-10.5,13.8-10.6
					c0.3-0.2,0.7-0.2,0.9,0.1c0.2,0.3,0.2,0.7-0.1,0.9c-0.1,0.1-7.8,6.4-13.9,10.6C34.9,90.6,34.7,90.6,34.6,90.6z"/>
				<path class="st0" d="M44.3,64.7c0,0.5,0.4,0.8,0.9,0.8c0.5,0,0.8-0.4,0.8-0.9c0-0.5-0.4-0.8-0.9-0.8
					C44.6,63.8,44.3,64.2,44.3,64.7"/>
				<path class="st0" d="M43.7,64.4l-0.7,0l-0.3,0c0,0,0.8-1.1,2.4-1.1s4.6,0.7,4.6,0.7"/>
				<path class="st0" d="M92,43c-0.1,0-0.2,0-0.3-0.1c-0.3-0.2-0.5-0.6-0.3-1c0.9-1.7,1.4-3.7,1.4-5.7c0-2.5-0.8-4.9-2.2-7
					c-0.2-0.3-0.2-0.8,0.2-1s0.8-0.2,1,0.2c1.6,2.3,2.5,5,2.5,7.8c0,2.2-0.6,4.4-1.6,6.3C92.5,42.9,92.3,43,92,43z"/>
				<path class="st0" d="M85.5,30.2c-0.1,0-0.2,0-0.4-0.1c-0.3-0.2-0.4-0.6-0.2-1c1.1-1.8,1.8-3.3,2.3-4.5c0.2-0.4,0.6-0.5,0.9-0.4
					s0.6,0.6,0.4,0.9c-0.5,1.3-1.3,2.9-2.4,4.7C86,30,85.8,30.2,85.5,30.2z"/>
				<path class="st0" d="M65.5,58c-0.2,0-0.3-0.1-0.5-0.2c-0.3-0.3-0.3-0.7-0.1-1c0.1-0.1,11.5-13.3,18.1-23.5
					c0.2-0.3,0.7-0.4,1-0.2c0.3,0.2,0.4,0.7,0.2,1c-6.7,10.2-18.1,23.5-18.2,23.6C65.9,57.9,65.7,58,65.5,58z"/>
				<path class="st0" d="M73.3,78.4c-0.7,0-1.5,0-2.2,0c-4.4-0.1-8.5-0.3-12.6-0.8c-2.8-0.3-4.7-0.6-7-1.5c-1.5-0.6-3-1.3-4.5-2.2
					l0.9-1.4c1.3,0.8,2.7,1.5,4.2,2c2.1,0.8,3.9,1.1,6.6,1.4c4.1,0.5,8.2,0.7,12.5,0.8c2.8,0,5.6,0,8.4-0.1l0.1,1.6
					C77.5,78.3,75.4,78.4,73.3,78.4z"/>
				<path class="st0" d="M17.8,109.4c-0.1,0-0.2,0-0.3-0.1c-0.3-0.1-0.6-0.4-0.7-0.7c-0.4-1.3,0-3.2,0.2-4.5
					c0.1-0.7-0.1-0.2,0.1-0.8c-0.7,0.3-1.3,0.5-2,0.8c-1.6,0.5-1.9,0.8-3.6,1.1c-0.3,0.1-0.6,0-0.8-0.2c-0.2-0.2-0.4-0.5-0.4-0.8
					c0-1.2,0.7-2.4,1.1-3.5c0.2-0.5,0.5-1,0.8-1.4c-1.8,0-3.6-0.2-5.4-0.5c-2-0.4-4.4-1-6.3-1.9c-0.4-0.2-0.6-0.7-0.6-1.1
					c0.1-0.4,0.5-0.8,0.9-0.8c0.6-0.1,1.5-0.1,2.6-0.2c4.5-0.5,10.6-0.8,18.1-3.9c4-1.6,7.7-4.3,15.1-9.6c3.4-2.4,6.7-4.9,9.9-7.5
					c-0.7-0.6-1.4-1.3-2.1-1.9l-0.1-0.1c-0.9-0.8-2.5-2.3-3.7-2.6c-0.3-0.1-0.6-0.1-0.6-0.1c-0.1,0-0.8,0-1.6,0.2
					c-1.1,0.3-1.8,1.1-2.2,1.5c-0.3,0.3-0.7,0.5-1.1,0.3c-0.4-0.1-0.7-0.4-0.7-0.9L34.2,68c0-0.1,0-0.1,0-0.2c0.1-2.2,1-3.3,1.5-3.8
					c0.5-0.4,1.4-1,2.5-1.4l0.3-0.1c0.3-0.1,0.5-0.1,0.7-0.3c0.2-0.1,0.5-0.3,0.7-0.7c0.5-0.8,1.1-1.8,17.6-2.9
					c1.3-1.6,7.3-8.8,11.3-14.4c4.8-6.7,11.4-16,17.3-29c2.6-5.9,4.6-8.3,6.4-14.6C92.6,0.3,93,0,93.4,0s0.8,0.2,1,0.6
					c0.6,1.3,1.1,2.7,1.5,4.1c1.4,4.9,1.4,5,1.2,7.7c-0.1,0.8-0.1,1.6-0.2,2.4l3.4-6.3c0.2-0.4,0.7-0.6,1.1-0.5
					c0.4,0.1,0.8,0.4,0.8,0.9c0.2,1.8,0.3,3.7,0.3,5.5c-0.1,2.5-0.4,5-1.1,7.5l2.5-3.4c0.3-0.4,0.7-0.5,1.2-0.4
					c0.4,0.1,0.7,0.5,0.7,1c0,2.1-0.2,4.3-0.6,6.4c-0.5,2.6-1.4,5.1-2.6,7.5l2.1-1.2c0.4-0.2,0.8-0.2,1.1,0.1
					c0.3,0.3,0.5,0.7,0.3,1.1c-0.8,2.8-2.2,5.4-4,7.7c-1.2,1.5-2.6,2.9-4.2,4c-0.4,3.9-1.4,7.7-3,11.2c-1.3,2.8-2.9,5.4-4.9,7.8
					l25,3.8c0.3,0.1,0.6,0.3,0.8,0.6c0.2,0.3,0.1,0.7,0,1c-0.6,1-1.3,2-2.2,2.8c-0.6,0.6-1.4,1.1-2.1,1.4c0.6,0.2,1.3,0.5,2.1,0.7
					c0.3,0.1,0.5,0.3,0.6,0.6s0.1,0.6,0,0.8c-0.5,1.2-1.3,2.2-2.2,3c-0.6,0.5-1.2,1-1.9,1.3c0.4,0.2,0.8,0.4,1.2,0.6
					c0.3,0.1,0.5,0.4,0.6,0.7s0,0.6-0.2,0.9c-0.6,0.8-1.6,2-3.2,2.8c-1.4,0.7-2.7,0.9-3.7,0.9c0,0,0,0,0,0.1
					c-0.1,0.4-0.2,1.1-0.7,1.6c-0.9,1.1-2.1,1.6-2.9,1.8c-0.9,0.3-2.5,0.6-4.3,0.3c-1.4-0.3-3-1.2-3.1-1.2c0,0-2.5-1.6-3.7-2.4
					c-3.4-2.2-6.8-4.5-10.1-6.7c-2.3,2.6-4.9,5-7.5,7.2c-4.8,4.1-9.7,8.3-17.2,10.8c-2.6,0.9-5.4,1.4-8.2,1.7l-1.1,2.9
					c-0.1,0.3-0.3,0.5-0.5,0.6s-0.5,0.2-0.8,0.1l-3.5-1.4l-1.1,3.7c-0.1,0.3-0.3,0.5-0.6,0.6c-0.3,0.1-0.6,0.1-0.8-0.1l-3-2.2
					l-1.3,3.5c-0.1,0.2-0.2,0.5-0.5,0.6c-0.1,0-0.1,0-0.2,0c-1.1-0.4-3.5-3.4-3.5-3.4l-2.4,5.2c-0.2,0.3-0.6,0.8-1,0.8l0,0
					c-0.4,0-0.7-0.6-0.9-0.9l-2-4.6c-0.6,0.8-1.1,0.8-1.8,1.5c-1.2,1.2-2.5,2.7-3.8,3.7C18.2,109.3,18,109.4,17.8,109.4z
					 M18.8,100.9c0.3,0,0.6,0.2,0.6,0.2c0.1,0.1,0.1,0.1,0.2,0.2c0.3,0.4,0.3,0.9,0,1.3c-0.6,0.8-1.1,0.9-1.3,2.7
					c-0.1,0.5-0.1,1.1,0,1.6c0.8-0.7,1.5-1.4,2.2-2.1c1-1,1.5-1,2.3-2.2c0.2-0.3,0.6-0.4,0.9-0.4c0.4,0,0.7,0.2,0.8,0.6
					c0.3,0.7,0.6,1.4,1,2.2c0.3,0.6,0.7,1.2,1,1.7c0.8-1.4,1.6-2.9,2.4-4.3c0,0,0.3-0.3,0.7-0.3c0.4,0,0.7,0.3,0.7,0.3
					c0.4,0.4,0.9,0.9,1.5,1.4c0.5,0.4,1,0.8,1.4,1.1c0.4-0.9,0.8-1.8,1.1-2.7c0.1-0.2,0.3-0.4,0.6-0.5c0.3-0.1,0.5-0.1,0.8,0.1
					c0.4,0.3,0.8,0.5,1.4,0.8c0.6,0.3,1.1,0.5,1.6,0.6c0.5-1.1,0.9-2.2,1.4-3.3c0.2-0.5,0.8-0.8,1.3-0.6c0.4,0.2,0.9,0.5,1.5,0.7
					c0.7,0.3,1.3,0.4,1.8,0.6c0.3-0.9,0.5-1.8,0.8-2.6c0.1-0.4,0.5-0.7,0.9-0.7c2.9-0.2,5.6-1.2,8.3-2.1c7.1-2.3,11.9-6.4,16.5-10.4
					c2.8-2.4,5.4-5,7.9-7.7c0.3-0.4,0.9-0.4,1.3-0.2c3.6,2.4,7.2,4.8,10.8,7.2c1.2,0.8,4.2,2.4,4.2,2.4c0.3,0.2,1.5,0.8,2.4,1
					c1.4,0.3,2.6,0,3.3-0.2c0.6-0.2,1.3-0.5,1.9-1.2c0.1-0.1,0.1-0.2,0.2-0.4L97.1,82c-0.5-0.3-0.7-0.8-0.4-1.3
					c0.2-0.5,0.7-0.5,1.2-0.3l0.2,0.1c0.1,0,0.1,0.1,0.2,0.1l5.9,2.9c0.8,0.1,2.8,0.3,4.3-0.5c0.7-0.3,1.2-0.8,1.7-1.2
					c-2.5-1.1-5.3-2.2-6.7-2.9c-1-0.5-1.7-0.8-2.2-1c0,0-0.6-0.2-0.8-0.8c0-0.1-0.1-0.4,0-0.7c0.1-0.3,0.4-0.3,0.5-0.4
					c0.5-0.2,1.2,0.2,1.5,0.4c1,0.4,3.1,1.3,5.7,2.4c0.8-0.2,1.9-0.8,2.9-1.8c0.4-0.4,1.2-1.1,1.5-1.6c-0.3-0.1-7.9-2.3-8.3-2.8
					c-0.1-0.2-0.2-0.8-0.1-1c0.2-0.3,0.7-0.2,0.8-0.2c0.3,0.1,0.7,0.2,1,0.3c1,0.2,2.5,0.5,3.4,0.7c0.6-0.2,2.2-1,3.3-1.9
					c0.3-0.3,0.6-0.6,0.9-1l-25.7-3.9c-0.4-0.1-0.7-0.3-0.8-0.7s0-0.8,0.2-1c2.4-2.6,4.3-5.5,5.8-8.7c1.6-3.5,2.6-7.2,2.9-11
					c0-0.3,0.2-0.6,0.4-0.8c1.6-1.1,4.4-3.4,5.6-4.9c1.1-1.4,2.4-4.1,3.1-5.7l-4.1,2.8c-0.4,0.2-0.9,0.2-1.3-0.2
					c-0.3-0.3-0.4-0.9-0.1-1.3c2-3.1,3.6-8,4.4-11.6c0.2-0.9,0.3-1.8,0.4-2.7l-6,9.5c-0.3,0.4-0.9,0.5-1.4,0.3s-0.6-0.9-0.4-1.4
					c2.4-4.5,4.5-11.7,4.6-16.5c0-0.6,0-1.2,0-1.8l-6.1,12.2c-0.2,0.5-0.8,0.7-1.3,0.5c-0.5-0.2-0.7-0.8-0.6-1.3
					c0.9-3,1.3-6.2,1.5-9.3C95,9.6,95.3,8.2,94,3.6c-0.1-0.3-0.2-0.7-0.3-1C92,8,90.2,11.1,88,16.2C82,29.4,75.4,38.7,70.5,45.5
					c-4.5,6.3-11.6,14.7-11.6,14.8c-0.2,0.2-0.4,0.3-0.7,0.4c-13.4,0.9-16,1.7-16.5,2c-0.4,0.7-0.9,1.1-1.2,1.3
					c-0.5,0.3-0.9,0.4-1.2,0.6l-0.2,0.1c-0.8,0.3-1.5,0.7-1.8,1c-0.3,0.2-0.8,0.9-0.8,2.2l0,0.3c0.5-0.3,1-0.6,1.6-0.8
					c1-0.3,2-0.3,2.4-0.3c0,0,0.5,0,0.9,0.1c1.8,0.4,3.6,2.1,4.7,3.1l0.1,0.1c1,0.9,2,1.8,3,2.7c0.2,0.2,0.4,0.5,0.4,0.8
					c0,0.3-0.1,0.6-0.4,0.8c-3.5,2.9-7.2,5.7-11,8.3c-7.6,5.4-11.4,8.1-15.6,9.8c-6.9,2.8-13.7,3-18.5,3.6C4.4,96.4,5,97,5.5,97.1
					c2.4,0.5,5.9,0.8,8.3,0.5c0.5-0.1,0.9,0.2,1.1,0.6c0.2,0.4,0.1,0.9-0.3,1.2c-0.6,0.5-1.4,1.3-2,2.6c-0.2,0.4-0.3,0.8-0.4,1.3
					c1.2-0.2,2.3-0.6,3.4-0.9c1.7-0.5,1.1-0.6,2.7-1.4C18.4,101,18.6,100.9,18.8,100.9z M105.2,72.1L105.2,72.1L105.2,72.1z
					 M41.6,62.8L41.6,62.8L41.6,62.8z"/>
			</g>
			<g>
				<g>
					<path class="st1" d="M23.2,90.2c-2.1-5-3.3-10.5-3.3-16.3c0-23.2,19-42.1,42.3-42.1c4.8,0,9.5,0.8,14,2.4
						c0.2-0.6,0.4-1.1,0.8-1.6c-4.8-1.7-9.7-2.5-14.8-2.5c-24.3,0-44.1,19.7-44.1,43.9c0,6,1.2,11.8,3.4,17
						C22.1,90.6,22.6,90.3,23.2,90.2z"/>
					<path class="st1" d="M104.8,85.4c-0.4,1.4-1.3,2.7-2.9,3.2c-6,16-21.5,27.3-39.6,27.3c-10.6,0-20.2-3.9-27.6-10.3
						c-0.2,0-0.3-0.3-0.5-0.3c-0.3,0-0.8,1-1.1,1c-0.3,0.1-0.6-0.5-0.9-0.4c7.9,7.3,18.4,11.8,30,11.8
						C82.6,117.8,99.7,104.1,104.8,85.4C104.8,85.4,104.8,85.4,104.8,85.4z"/>
					<path class="st1" d="M103.8,66c0.1,0,0.2,0,0.3,0c0.6,0,1.1,0.1,1.6,0.2c-1.3-7-4.2-13.5-8.5-19c0,0.1,0,0.2,0,0.3
						c0,0.8-0.1,1.5-0.3,2.2C100.3,54.6,102.7,60.1,103.8,66z"/>
				</g>
				<polygon class="st1" points="64.7,34.4 65.8,36.8 68.4,37.2 66.5,39 66.9,41.6 64.6,40.3 62.2,41.5 62.7,38.9 60.9,37 
					63.5,36.7 				"/>
				<polygon class="st1" points="40.1,41.1 42.4,42.5 44.8,41.5 44.1,44 45.9,46 43.2,46.2 41.9,48.4 40.9,46 38.4,45.4 40.4,43.7 
									"/>
				<polygon class="st1" points="26.2,66.4 26.2,63.8 24.1,62.3 26.6,61.5 27.4,59 28.9,61.1 31.5,61.1 29.9,63.2 30.8,65.7 
					28.3,64.9 				"/>
				<polygon class="st1" points="46.4,109.7 47.2,107.2 45.6,105.1 48.2,105.1 49.7,102.9 50.5,105.4 53,106.2 50.9,107.7 51,110.3 
					48.9,108.8 				"/>
				<polygon class="st1" points="75.8,109.9 73.2,109.4 71.3,111.3 71,108.7 68.6,107.6 71,106.4 71.4,103.8 73.2,105.7 75.8,105.3 
					74.5,107.6 				"/>
				<polygon class="st1" points="95.5,95.4 92.9,95.9 91.9,98.4 90.6,96.1 88,95.9 89.7,93.9 89.1,91.4 91.5,92.4 93.7,91.1 
					93.5,93.7 				"/>
				<path class="st1" d="M30.6,58c-0.1,0-0.1,0-0.2-0.1c-0.3-0.2-0.4-0.5-0.2-0.8c1.8-3.4,4.2-6.5,7-9.2c0.2-0.2,0.6-0.2,0.8,0
					s0.2,0.6,0,0.8c-2.7,2.6-5,5.6-6.8,8.9C31.1,57.9,30.9,58,30.6,58z"/>
				<path class="st1" d="M62.6,109.8c-2.9,0-5.7-0.3-8.5-1c-0.3-0.1-0.5-0.4-0.4-0.7s0.4-0.5,0.7-0.4c2.9,0.7,5.8,1,8.8,0.9
					c1,0,2-0.1,2.9-0.2c0.3,0,0.6,0.2,0.7,0.5s-0.2,0.6-0.5,0.7c-1,0.1-2,0.2-3,0.2C63,109.8,62.8,109.8,62.6,109.8z"/>
				<path class="st1" d="M78.7,106.1c-0.2,0-0.4-0.1-0.5-0.3c-0.2-0.3,0-0.7,0.3-0.8c3.3-1.7,6.3-3.8,9-6.4c0.2-0.2,0.6-0.2,0.8,0
					c0.2,0.2,0.2,0.6,0,0.8c-2.8,2.7-5.9,4.9-9.3,6.7C78.9,106,78.8,106.1,78.7,106.1z"/>
				<path class="st1" d="M46.6,42.5c-0.2,0-0.3-0.2-0.4-0.3c-0.2-0.3,0-0.7,0.3-0.8c3.5-1.7,7.3-2.9,11.2-3.4c0.3,0,0.6,0.2,0.7,0.5
					c0,0.3-0.2,0.6-0.5,0.7c-3.8,0.5-7.4,1.6-10.9,3.3C46.8,42.5,46.7,42.6,46.6,42.5z"/>
			</g>
		</g>
	</g>
</g>
</svg>
